<?xml version="1.0" encoding="utf-8"?>
<!-- Generator: Adobe Illustrator 21.1.0, SVG Export Plug-In . SVG Version: 6.00 Build 0)  -->
<svg version="1.1" id="Layer_1" xmlns="http://www.w3.org/2000/svg" xmlns:xlink="http://www.w3.org/1999/xlink" x="0px" y="0px"
	 viewBox="0 0 20.4 23.5" style="enable-background:new 0 0 20.4 23.5;" xml:space="preserve">
<style type="text/css">
	.st0{fill:#205081;}
</style>
<path class="st0" d="M10.2,0L10.2,0L10.2,0C4.6,0,0,1.5,0,3.4C0,3.9,1.2,11,1.7,13.8c0.2,1.3,3.5,3.1,8.5,3.1l0,0l0,0
	c5,0,8.2-1.8,8.5-3.1c0.5-2.8,1.7-9.9,1.7-10.4C20.3,1.5,15.8,0,10.2,0z M10.2,14.6c-1.8,0-3.2-1.4-3.2-3.2c0-1.8,1.4-3.2,3.2-3.2
	s3.2,1.4,3.2,3.2C13.4,13.1,12,14.6,10.2,14.6z M10.2,4.4C6.6,4.4,3.7,3.8,3.7,3c0-0.8,2.9-1.4,6.5-1.4s6.5,0.6,6.5,1.4
	C16.7,3.8,13.8,4.4,10.2,4.4z"/>
<path class="st0" d="M17.5,16.5c-0.2,0-0.3,0.1-0.3,0.1s-2.5,2-7,2s-7-2-7-2S3,16.5,2.9,16.5c-0.2,0-0.4,0.1-0.4,0.4V17
	c0.4,2.1,0.7,3.6,0.7,3.8c0.3,1.5,3.3,2.7,6.9,2.7l0,0l0,0l0,0l0,0c3.6,0,6.6-1.2,6.9-2.7c0-0.2,0.3-1.7,0.7-3.8v-0.1
	C17.8,16.7,17.7,16.5,17.5,16.5z"/>
<circle class="st0" cx="10.2" cy="11.3" r="1.6"/>
</svg>
