<?xml version="1.0"?>
<svg xmlns="http://www.w3.org/2000/svg" xmlns:xlink="http://www.w3.org/1999/xlink" version="1.1" viewBox="0 0 252 252" width="480px" height="480px"><g fill="none" fill-rule="nonzero" stroke="none" stroke-width="1" stroke-linecap="butt" stroke-linejoin="miter" stroke-miterlimit="10" stroke-dasharray="" stroke-dashoffset="0" font-family="none" font-weight="none" font-size="none" text-anchor="none" style="mix-blend-mode: normal"><path d="M0,252v-252h252v252z" fill="none"/><g id="Layer_1"><path d="M120.24075,17.2515c3.56475,-2.00025 7.95375,-2.00025 11.51325,0c17.61375,9.88575 70.61775,39.64275 88.23675,49.5285c3.56475,1.995 5.75925,5.691 5.75925,9.6915c0,19.7715 0,79.28025 0,99.05175c0,4.0005 -2.1945,7.6965 -5.75925,9.69675c-17.61375,9.88575 -70.61775,39.64275 -88.23675,49.5285c-3.56475,2.00025 -7.95375,2.00025 -11.51325,0c-17.61375,-9.88575 -70.61775,-39.64275 -88.23675,-49.5285c-3.5595,-2.00025 -5.754,-5.691 -5.754,-9.6915c0,-19.7715 0,-79.28025 0,-99.05175c0,-4.0005 2.1945,-7.6965 5.75925,-9.69675c17.6085,-9.88575 70.623,-39.64275 88.2315,-49.5285z" fill="#9332b7"/><path d="M27.846,180.621c-1.3965,-1.869 -1.596,-3.6435 -1.596,-6.03225c0,-19.656 0,-78.8235 0,-98.48475c0,-3.9795 2.18925,-7.6545 5.7435,-9.639c17.55075,-9.828 70.37625,-39.41175 87.927,-49.245c3.55425,-1.98975 8.3685,-1.94775 11.92275,0.042c17.55075,9.828 70.19775,39.15975 87.7485,48.98775c1.4175,0.798 2.499,1.75875 3.465,3.024z" fill="#cc7bef"/><path d="M126,52.5c-40.5825,0 -73.5,32.9175 -73.5,73.5c0,40.5825 32.9175,73.5 73.5,73.5c40.5825,0 73.5,-32.9175 73.5,-73.5c0,-40.5825 -32.9175,-73.5 -73.5,-73.5zM126,162.75c-20.265,0 -36.75,-16.485 -36.75,-36.75c0,-20.265 16.485,-36.75 36.75,-36.75c20.265,0 36.75,16.485 36.75,36.75c0,20.265 -16.485,36.75 -36.75,36.75z" fill="#ffffff"/><path d="M223.04625,69.32625c2.709,2.53575 2.6565,6.35775 2.6565,9.366c0,19.92375 -0.168,76.59225 0.04725,96.516c0.021,2.079 -0.66675,4.26825 -1.69575,5.91675l-100.191,-55.125z" fill="#a757c7"/><rect x="34" y="20" transform="scale(5.25,5.25)" width="1" height="8" fill="#ffffff"/><rect x="37" y="20" transform="scale(5.25,5.25)" width="1" height="8" fill="#ffffff"/><rect x="32" y="25" transform="scale(5.25,5.25)" width="8" height="1" fill="#ffffff"/><rect x="32" y="22" transform="scale(5.25,5.25)" width="8" height="1" fill="#ffffff"/></g></g></svg>
